<svg version="1.1" id="Layer_1" xmlns="http://www.w3.org/2000/svg" xmlns:xlink="http://www.w3.org/1999/xlink" x="0px" y="0px"
	 width="100%" viewBox="0 0 1672 941" enable-background="new 0 0 1672 941" xml:space="preserve">
<path fill="#000000" opacity="1.000000" stroke="none" 
	d="
M1093.000000,942.000000 
	C728.666687,942.000000 364.833344,942.000000 1.000000,942.000000 
	C1.000000,628.333313 1.000000,314.666656 1.000000,1.000000 
	C558.333313,1.000000 1115.666626,1.000000 1673.000000,1.000000 
	C1673.000000,314.666656 1673.000000,628.333313 1673.000000,942.000000 
	C1479.833374,942.000000 1286.666626,942.000000 1093.000000,942.000000 
M1306.403320,413.014801 
	C1301.101196,413.126251 1302.090088,417.315521 1302.072510,420.301727 
	C1301.939209,443.095520 1301.999634,465.890472 1302.000244,488.685059 
	C1302.000366,496.338715 1301.930176,503.993347 1302.036133,511.645569 
	C1302.081787,514.951721 1302.590698,518.172180 1307.962769,517.957886 
	C1310.394897,518.269592 1311.729004,517.514282 1311.605957,514.746033 
	C1311.451172,511.259674 1311.554810,507.761688 1311.554810,504.268707 
	C1311.554321,475.160126 1311.538330,446.051483 1311.581543,416.942963 
	C1311.586060,413.841644 1311.400879,411.334229 1306.403320,413.014801 
M569.511292,488.485565 
	C577.787109,508.616730 596.902466,520.495178 619.919189,519.809387 
	C639.989380,519.211365 657.612305,508.630676 662.605042,493.987549 
	C657.632141,491.413422 652.523743,488.992706 647.649902,486.167358 
	C644.418091,484.293884 642.545898,484.875122 640.180176,487.766266 
	C631.426331,498.464355 616.813232,501.218872 604.542419,494.859131 
	C596.097778,490.482422 591.248657,482.842896 592.127441,474.741852 
	C594.703979,474.741852 597.338196,474.742279 599.972473,474.741791 
	C620.449341,474.737976 640.926147,474.727600 661.403015,474.738739 
	C663.785706,474.740051 665.979675,475.039886 666.299927,471.490295 
	C668.689148,445.013062 655.467163,420.492798 626.103333,415.767120 
	C602.509949,411.970154 584.063416,420.599731 570.871094,440.870026 
	C569.216797,440.116852 567.562439,439.363647 565.908142,438.610443 
	C565.271912,440.303223 564.412354,441.948181 564.038147,443.696991 
	C562.420959,451.254089 564.494385,454.701416 552.895935,454.121002 
	C551.858521,454.069061 550.763184,455.175751 549.092163,455.377625 
	C543.184326,448.182220 535.521301,443.667450 526.689209,441.166229 
	C513.581543,437.454224 500.367645,434.113434 487.285248,430.317291 
	C481.324097,428.587524 476.897186,424.766663 476.228424,418.163727 
	C475.544647,411.412201 479.104919,406.807709 484.692078,403.511719 
	C496.219452,396.711487 522.965210,398.105865 530.541321,417.419739 
	C530.931702,418.414978 531.703979,419.260406 532.472229,420.443054 
	C539.907593,415.784302 547.021179,411.327209 554.046021,406.925659 
	C537.241394,370.473328 483.678650,367.509003 460.231812,390.541656 
	C445.682556,404.833862 442.878601,437.886658 468.533875,450.451996 
	C476.491211,454.349365 485.351776,456.492859 493.921295,459.024872 
	C502.669891,461.609802 511.745209,463.176758 520.342712,466.155609 
	C526.477905,468.281311 530.601196,473.134399 530.278748,480.266510 
	C529.959290,487.331818 525.557129,492.003937 519.283936,493.571686 
	C512.310730,495.314301 504.892853,496.232422 497.716736,496.002991 
	C484.099243,495.567688 473.537842,489.471680 467.742554,476.507111 
	C467.367828,475.668854 466.683350,474.969025 465.945923,473.926147 
	C458.804596,478.643494 451.947571,483.173065 445.103760,487.693878 
	C449.691284,497.346375 455.686279,504.744934 464.171509,509.924469 
	C484.509003,522.338684 506.155273,522.765137 528.083496,515.690674 
	C540.456787,511.698792 549.538208,503.220795 555.276794,490.887878 
	C559.843872,489.928131 564.410950,488.968384 569.511292,488.485565 
M149.184006,524.265259 
	C158.586288,529.957642 168.016129,535.604980 177.385269,541.351379 
	C199.243958,554.757996 221.061905,568.230957 242.923798,581.632263 
	C247.728973,584.577820 252.596909,584.680054 257.539795,581.689209 
	C288.742615,562.808960 319.977295,543.981384 351.188354,525.114685 
	C356.440826,521.939575 359.192688,517.356689 359.117493,511.067810 
	C359.011932,502.237213 358.820190,493.392548 359.189667,484.575867 
	C359.519379,476.708984 356.558716,471.480988 349.637054,467.491180 
	C332.328827,457.514221 315.323029,447.012299 298.206116,436.704010 
	C285.797211,429.231018 273.409241,421.723328 261.003510,414.245087 
	C250.505264,407.916748 240.353683,411.499237 236.100510,423.014526 
	C232.723831,432.156738 235.630981,439.547333 245.468262,445.694275 
	C267.784943,459.639008 290.198029,473.429443 312.556213,487.307922 
	C319.497284,491.616486 319.404053,495.040985 312.504486,499.221191 
	C294.133972,510.351410 275.741241,521.448303 257.516876,532.814270 
	C252.682693,535.829224 248.604172,536.116150 243.699615,533.018494 
	C224.136261,520.662720 204.381424,508.610413 184.781540,496.311798 
	C180.385971,493.553680 176.303696,493.067139 171.743484,495.787262 
	C164.024933,500.391266 156.295181,504.996643 148.377731,509.242615 
	C134.727005,516.563293 139.210266,518.936340 149.184006,524.265259 
M311.576904,357.953857 
	C293.891876,347.309784 276.177032,336.714752 258.539337,325.992859 
	C252.988647,322.618622 247.696854,322.490753 242.129700,325.901947 
	C210.200943,345.465942 178.255066,365.002289 146.259323,384.456451 
	C141.347656,387.442841 139.053329,391.530487 139.085815,397.212402 
	C139.146759,407.871735 139.321030,418.540527 138.958817,429.188690 
	C138.710083,436.501160 141.525024,441.386169 147.767914,445.151550 
	C170.005920,458.564301 192.068329,472.268097 214.215515,485.831787 
	C215.961517,486.901123 217.848648,487.740051 220.304489,489.015442 
	C220.487381,486.607452 220.698807,484.993866 220.717926,483.377991 
	C220.824707,474.344025 224.246964,466.946198 231.270248,461.165710 
	C235.680710,457.535767 235.501663,456.276123 230.504120,453.200043 
	C215.058411,443.693085 199.592438,434.219055 184.154495,424.699493 
	C178.703827,421.338409 178.280716,414.053101 183.577972,410.807709 
	C203.024200,398.893890 222.594223,387.182404 242.079681,375.332336 
	C246.255875,372.792542 249.858322,373.120667 254.080612,375.738403 
	C273.181274,387.580566 292.537231,399.010803 311.651428,410.831604 
	C316.558228,413.866150 320.671722,413.818054 325.472351,410.695465 
	C334.401367,404.887573 343.610352,399.510651 352.690918,393.934998 
	C358.928619,390.104919 359.005676,386.979156 352.673676,383.051910 
	C339.239288,374.719482 325.705444,366.547302 311.576904,357.953857 
M1095.114746,427.383820 
	C1081.077515,414.876221 1064.462769,412.061157 1047.033813,416.700226 
	C1012.379822,425.924164 1002.856506,460.579895 1013.598572,488.895355 
	C1023.648926,515.387451 1053.800415,525.017212 1078.874023,517.424194 
	C1091.361572,513.642639 1100.771118,506.130219 1107.351440,494.104279 
	C1100.991333,491.050446 1095.092651,488.061737 1089.023926,485.471832 
	C1088.107788,485.080933 1085.910889,486.181610 1085.132202,487.214661 
	C1078.148315,496.480042 1068.634521,499.024597 1057.688477,497.883820 
	C1045.084595,496.570282 1034.809937,485.872070 1035.834961,474.826660 
	C1037.443848,474.826660 1039.089233,474.828552 1040.734741,474.826385 
	C1062.212036,474.798187 1083.689209,474.748596 1105.166504,474.766693 
	C1107.911621,474.769012 1109.982300,474.650970 1110.164062,470.985992 
	C1110.973389,454.672241 1107.327148,439.935547 1095.114746,427.383820 
M1179.965698,421.499390 
	C1175.139404,426.183685 1170.198853,430.760986 1165.605347,435.663239 
	C1164.884033,436.433014 1165.177368,439.637268 1165.949585,440.086670 
	C1171.764893,443.470825 1177.817749,446.447052 1183.687744,449.494446 
	C1192.463257,436.976837 1202.370728,433.174255 1214.880737,437.057892 
	C1223.302490,439.672333 1227.287231,446.968414 1224.942383,456.163513 
	C1217.766724,456.163513 1210.464233,456.035675 1203.168213,456.195251 
	C1193.600098,456.404510 1184.338501,457.917145 1175.785034,462.696777 
	C1164.439941,469.036407 1159.889038,478.832031 1160.843262,491.411407 
	C1161.786377,503.841064 1169.392090,513.360840 1181.293213,517.110535 
	C1198.632202,522.573547 1213.930176,519.469604 1227.314941,504.985962 
	C1227.314941,508.595825 1227.036865,511.387085 1227.447266,514.073120 
	C1227.619751,515.201599 1229.215942,516.939819 1230.221313,516.979614 
	C1236.833618,517.240967 1243.461182,517.114441 1250.092529,517.114441 
	C1250.417236,516.004333 1250.760376,515.385681 1250.754883,514.770081 
	C1250.549561,492.136322 1250.812500,469.482117 1249.876465,446.877686 
	C1249.376831,434.815552 1242.697754,425.388611 1231.595459,420.252258 
	C1214.601440,412.390015 1197.454956,412.756439 1179.965698,421.499390 
M773.063660,505.473145 
	C772.941895,487.311066 773.215088,469.135193 772.583130,450.990875 
	C771.994263,434.082062 762.630920,421.861908 747.832581,416.954987 
	C731.765747,411.627441 716.319092,415.797943 705.270020,428.420410 
	C705.007751,428.719971 704.510986,428.814240 703.754211,429.185455 
	C703.754211,426.061096 704.010132,423.243988 703.639954,420.511719 
	C703.469849,419.256073 702.108521,417.189209 701.224976,417.156128 
	C693.942627,416.883392 686.645569,417.001984 679.158569,417.001984 
	C679.158569,450.603455 679.158569,483.645996 679.158569,517.085815 
	C686.692139,517.085815 693.839417,517.201416 700.973938,516.952271 
	C701.962402,516.917786 703.181885,515.221863 703.749451,514.034607 
	C704.201538,513.088989 703.811584,511.746033 703.813904,510.579498 
	C703.848328,493.414856 703.498108,476.237732 704.049377,459.089600 
	C704.465820,446.137146 714.296448,437.516968 727.018372,437.676971 
	C740.028137,437.840546 746.987183,444.863068 747.864746,458.753113 
	C748.001282,460.913666 748.066467,463.082184 748.069519,465.247162 
	C748.091003,480.579681 748.080139,495.912231 748.102661,511.244751 
	C748.105286,513.024231 748.249390,514.803406 748.349243,517.067383 
	C753.254578,517.067383 757.714050,517.077942 762.173523,517.065186 
	C772.980225,517.034302 772.980225,517.029968 773.063660,505.473145 
M939.525879,419.995483 
	C936.016846,422.841858 932.507874,425.688232 928.854126,428.652008 
	C928.854126,426.177429 928.683350,423.838745 928.894104,421.534973 
	C929.211182,418.069153 927.953125,416.769531 924.374023,416.954102 
	C919.223022,417.219696 914.027283,417.276367 908.888062,416.904572 
	C904.743591,416.604767 903.897888,418.189087 903.914673,422.035095 
	C904.046753,452.359680 903.965332,482.685120 903.976379,513.010315 
	C903.976807,514.270935 904.242126,515.531433 904.388916,516.836121 
	C912.577515,516.836121 920.342224,516.836121 928.528503,516.836121 
	C928.617432,514.978882 928.759094,513.359131 928.762451,511.739136 
	C928.792908,497.243011 928.778503,482.746796 928.827271,468.250763 
	C928.838501,464.922638 928.789490,461.563507 929.201843,458.273010 
	C930.836914,445.226624 939.690857,437.557129 952.574585,437.814667 
	C964.498352,438.053009 971.356873,445.278076 972.531128,458.892120 
	C972.688293,460.714539 972.706238,462.553101 972.706909,464.384216 
	C972.712219,480.213257 972.692139,496.042328 972.701111,511.871368 
	C972.702026,513.470764 972.844360,515.070068 972.927673,516.808472 
	C981.215759,516.808472 988.982605,516.808472 997.928040,516.808472 
	C997.327576,493.085663 998.449646,469.453674 995.693420,446.283020 
	C992.482483,419.290283 964.368225,406.809265 939.525879,419.995483 
M836.464722,438.387787 
	C840.418030,438.387787 844.371277,438.387787 848.888855,438.387787 
	C848.888855,432.698090 848.593750,427.555145 848.977356,422.463379 
	C849.314941,417.982391 847.745483,416.691956 843.366699,416.909882 
	C836.304871,417.261322 829.212708,417.004333 821.972168,417.004333 
	C821.972168,408.691284 821.820496,401.199249 822.038330,393.717987 
	C822.141724,390.169495 820.866272,389.034729 817.412903,389.189392 
	C812.095032,389.427643 806.752258,389.449219 801.434143,389.226440 
	C797.858765,389.076660 796.860657,390.468292 796.957642,393.890930 
	C797.172485,401.470734 797.024536,409.060760 797.024536,417.207153 
	C791.247253,417.207153 786.184753,417.207153 781.256775,417.207153 
	C781.256775,424.510162 781.256775,431.228394 781.256775,438.347107 
	C786.610168,438.347107 791.559631,438.347107 797.024658,438.347107 
	C797.024658,440.552979 797.024780,442.348328 797.024719,444.143677 
	C797.024231,458.962250 796.931580,473.781586 797.048401,488.599213 
	C797.171387,504.205872 805.986084,515.605408 820.627930,517.367615 
	C828.934082,518.367310 837.520874,517.198242 845.962952,516.697510 
	C847.002075,516.635925 848.713135,514.708069 848.773254,513.574036 
	C849.063477,508.095276 848.903137,502.592163 848.886902,497.097748 
	C848.878540,494.280823 847.616943,493.937866 845.007690,494.585693 
	C841.650879,495.419067 838.130005,495.902618 834.671326,495.952789 
	C826.402771,496.072754 821.994263,491.640869 821.964600,483.432434 
	C821.922485,471.777588 821.990051,460.122345 822.008057,448.467285 
	C822.013123,445.181519 822.008789,441.895752 822.008789,438.378723 
	C826.842529,438.378723 831.160278,438.378723 836.464722,438.387787 
M1123.031250,484.500000 
	C1123.039551,493.832581 1123.156860,503.167023 1122.997681,512.496765 
	C1122.941040,515.823242 1123.692627,517.384399 1127.433472,517.155823 
	C1132.580566,516.841309 1137.772095,516.871033 1142.923950,517.142273 
	C1146.656250,517.338745 1147.873535,516.029785 1147.817993,512.311707 
	C1147.638550,500.315338 1147.751465,488.314514 1147.755737,476.315399 
	C1147.766846,444.818481 1147.727051,413.321320 1147.862793,381.824921 
	C1147.879028,378.076782 1146.730591,376.787201 1142.982544,377.035095 
	C1138.502563,377.331451 1133.987915,377.106171 1129.488281,377.102844 
	C1123.073975,377.098083 1123.034058,377.151672 1123.034546,383.508484 
	C1123.037842,416.838989 1123.032471,450.169495 1123.031250,484.500000 
M862.774841,471.436371 
	C862.774841,486.513367 862.774841,501.590363 862.774841,517.078491 
	C870.375427,517.078491 877.189514,517.223267 883.984253,516.925720 
	C885.029358,516.879944 886.850403,514.803223 886.856384,513.658081 
	C887.019714,482.670319 886.965210,451.681488 887.043518,420.693054 
	C887.050842,417.792389 885.913574,416.919617 883.190369,416.979706 
	C877.861816,417.097260 872.520142,417.170959 867.199951,416.920959 
	C863.684875,416.755798 862.660522,417.922089 862.701660,421.477692 
	C862.890686,437.802673 862.780151,454.131104 862.774841,471.436371 
M1499.205688,458.501892 
	C1499.205688,468.750763 1499.205688,478.999664 1499.205688,489.269592 
	C1502.944580,489.269592 1505.825806,489.269592 1509.102539,489.269592 
	C1509.102539,478.793152 1509.102539,468.740112 1509.102539,457.205597 
	C1515.686035,467.068970 1521.491333,475.698303 1527.222656,484.376495 
	C1531.291260,490.537201 1532.108154,490.883820 1539.928467,488.984131 
	C1539.928467,473.285065 1539.928467,457.563843 1539.928467,441.945618 
	C1536.648071,441.945618 1533.759033,441.945618 1530.242188,441.945618 
	C1530.242188,451.855408 1530.242188,461.353485 1530.242188,470.851562 
	C1523.810547,463.169983 1518.364624,455.278748 1513.016479,447.321747 
	C1508.421509,440.485138 1508.154297,440.328796 1499.203857,442.209015 
	C1499.203857,447.246307 1499.203857,452.374695 1499.205688,458.501892 
M1480.823364,482.304260 
	C1485.883301,476.761566 1487.316895,470.043793 1486.710449,462.859344 
	C1485.884644,453.076447 1480.910034,445.746185 1471.787598,442.257355 
	C1463.089600,438.930786 1454.278687,439.774139 1446.885010,445.979614 
	C1435.905273,455.194794 1434.797974,472.349823 1444.187988,482.553345 
	C1453.619019,492.801270 1469.765259,492.922821 1480.823364,482.304260 
M1391.944580,455.308685 
	C1390.648193,451.706604 1389.409302,448.082153 1388.019043,444.516693 
	C1387.621460,443.497437 1386.859741,441.921570 1386.137329,441.847534 
	C1382.845337,441.510101 1379.377319,441.070679 1376.246948,441.817657 
	C1374.887695,442.141968 1374.053833,445.176819 1373.221802,447.085388 
	C1371.891724,450.136200 1370.734375,453.263855 1369.552979,456.377625 
	C1365.446167,467.202148 1361.360474,478.034698 1356.861816,489.935486 
	C1361.425659,488.653961 1366.740845,492.520538 1368.312622,486.593109 
	C1370.185913,479.527924 1374.390991,478.075439 1380.660156,478.921326 
	C1382.296997,479.142212 1384.013306,479.161469 1385.647461,478.938873 
	C1389.576904,478.403595 1391.610718,479.841034 1392.804077,483.799164 
	C1394.863892,490.630920 1397.404175,491.479218 1404.686035,488.634613 
	C1400.533325,477.768646 1396.379761,466.900696 1391.944580,455.308685 
M877.966248,403.825348 
	C886.895386,401.270569 890.985291,394.771423 889.062744,386.192413 
	C887.389893,378.727600 880.203247,374.070343 872.360901,375.368866 
	C863.862549,376.775940 858.982056,383.522400 860.053162,392.382172 
	C860.956238,399.851898 867.394348,404.211304 877.966248,403.825348 
M257.517700,495.148499 
	C263.088013,490.034332 264.667786,485.106476 262.391663,479.227966 
	C260.416107,474.125641 256.561737,471.207733 251.136978,470.673462 
	C245.702011,470.138153 239.958801,473.665741 237.839310,478.544556 
	C235.378387,484.209320 236.489166,489.900757 240.870728,494.076385 
	C245.314163,498.311035 250.341568,498.785400 257.517700,495.148499 
M1425.471069,486.842651 
	C1425.471069,471.841034 1425.471069,456.839417 1425.471069,441.918823 
	C1421.732300,441.918823 1418.832886,441.918823 1416.091797,441.918823 
	C1416.091797,457.943115 1416.091797,473.609955 1416.091797,490.571747 
	C1419.679443,489.467590 1422.544189,488.585968 1425.471069,486.842651 
z"/>
<path fill="#4257F2" opacity="1.000000" stroke="none" 
	d="
M148.861145,524.093872 
	C139.210266,518.936340 134.727005,516.563293 148.377731,509.242615 
	C156.295181,504.996643 164.024933,500.391266 171.743484,495.787262 
	C176.303696,493.067139 180.385971,493.553680 184.781540,496.311798 
	C204.381424,508.610413 224.136261,520.662720 243.699615,533.018494 
	C248.604172,536.116150 252.682693,535.829224 257.516876,532.814270 
	C275.741241,521.448303 294.133972,510.351410 312.504486,499.221191 
	C319.404053,495.040985 319.497284,491.616486 312.556213,487.307922 
	C290.198029,473.429443 267.784943,459.639008 245.468262,445.694275 
	C235.630981,439.547333 232.723831,432.156738 236.100510,423.014526 
	C240.353683,411.499237 250.505264,407.916748 261.003510,414.245087 
	C273.409241,421.723328 285.797211,429.231018 298.206116,436.704010 
	C315.323029,447.012299 332.328827,457.514221 349.637054,467.491180 
	C356.558716,471.480988 359.519379,476.708984 359.189667,484.575867 
	C358.820190,493.392548 359.011932,502.237213 359.117493,511.067810 
	C359.192688,517.356689 356.440826,521.939575 351.188354,525.114685 
	C319.977295,543.981384 288.742615,562.808960 257.539795,581.689209 
	C252.596909,584.680054 247.728973,584.577820 242.923798,581.632263 
	C221.061905,568.230957 199.243958,554.757996 177.385269,541.351379 
	C168.016129,535.604980 158.586288,529.957642 148.861145,524.093872 
z"/>
<path fill="#4258F1" opacity="1.000000" stroke="none" 
	d="
M311.894653,358.131653 
	C325.705444,366.547302 339.239288,374.719482 352.673676,383.051910 
	C359.005676,386.979156 358.928619,390.104919 352.690918,393.934998 
	C343.610352,399.510651 334.401367,404.887573 325.472351,410.695465 
	C320.671722,413.818054 316.558228,413.866150 311.651428,410.831604 
	C292.537231,399.010803 273.181274,387.580566 254.080612,375.738403 
	C249.858322,373.120667 246.255875,372.792542 242.079681,375.332336 
	C222.594223,387.182404 203.024200,398.893890 183.577972,410.807709 
	C178.280716,414.053101 178.703827,421.338409 184.154495,424.699493 
	C199.592438,434.219055 215.058411,443.693085 230.504120,453.200043 
	C235.501663,456.276123 235.680710,457.535767 231.270248,461.165710 
	C224.246964,466.946198 220.824707,474.344025 220.717926,483.377991 
	C220.698807,484.993866 220.487381,486.607452 220.304489,489.015442 
	C217.848648,487.740051 215.961517,486.901123 214.215515,485.831787 
	C192.068329,472.268097 170.005920,458.564301 147.767914,445.151550 
	C141.525024,441.386169 138.710083,436.501160 138.958817,429.188690 
	C139.321030,418.540527 139.146759,407.871735 139.085815,397.212402 
	C139.053329,391.530487 141.347656,387.442841 146.259323,384.456451 
	C178.255066,365.002289 210.200943,345.465942 242.129700,325.901947 
	C247.696854,322.490753 252.988647,322.618622 258.539337,325.992859 
	C276.177032,336.714752 293.891876,347.309784 311.894653,358.131653 
z"/>
<path fill="#F9F9F9" opacity="1.000000" stroke="none" 
	d="
M554.371887,490.768036 
	C549.538208,503.220795 540.456787,511.698792 528.083496,515.690674 
	C506.155273,522.765137 484.509003,522.338684 464.171509,509.924469 
	C455.686279,504.744934 449.691284,497.346375 445.103760,487.693878 
	C451.947571,483.173065 458.804596,478.643494 465.945923,473.926147 
	C466.683350,474.969025 467.367828,475.668854 467.742554,476.507111 
	C473.537842,489.471680 484.099243,495.567688 497.716736,496.002991 
	C504.892853,496.232422 512.310730,495.314301 519.283936,493.571686 
	C525.557129,492.003937 529.959290,487.331818 530.278748,480.266510 
	C530.601196,473.134399 526.477905,468.281311 520.342712,466.155609 
	C511.745209,463.176758 502.669891,461.609802 493.921295,459.024872 
	C485.351776,456.492859 476.491211,454.349365 468.533875,450.451996 
	C442.878601,437.886658 445.682556,404.833862 460.231812,390.541656 
	C483.678650,367.509003 537.241394,370.473328 554.046021,406.925659 
	C547.021179,411.327209 539.907593,415.784302 532.472229,420.443054 
	C531.703979,419.260406 530.931702,418.414978 530.541321,417.419739 
	C522.965210,398.105865 496.219452,396.711487 484.692078,403.511719 
	C479.104919,406.807709 475.544647,411.412201 476.228424,418.163727 
	C476.897186,424.766663 481.324097,428.587524 487.285248,430.317291 
	C500.367645,434.113434 513.581543,437.454224 526.689209,441.166229 
	C535.521301,443.667450 543.184326,448.182220 549.500488,455.870087 
	C557.325623,467.061890 557.496826,478.701172 554.371887,490.768036 
z"/>
<path fill="#F8F8F8" opacity="1.000000" stroke="none" 
	d="
M1095.363159,427.634216 
	C1107.327148,439.935547 1110.973389,454.672241 1110.164062,470.985992 
	C1109.982300,474.650970 1107.911621,474.769012 1105.166504,474.766693 
	C1083.689209,474.748596 1062.212036,474.798187 1040.734741,474.826385 
	C1039.089233,474.828552 1037.443848,474.826660 1035.834961,474.826660 
	C1034.809937,485.872070 1045.084595,496.570282 1057.688477,497.883820 
	C1068.634521,499.024597 1078.148315,496.480042 1085.132202,487.214661 
	C1085.910889,486.181610 1088.107788,485.080933 1089.023926,485.471832 
	C1095.092651,488.061737 1100.991333,491.050446 1107.351440,494.104279 
	C1100.771118,506.130219 1091.361572,513.642639 1078.874023,517.424194 
	C1053.800415,525.017212 1023.648926,515.387451 1013.598572,488.895355 
	C1002.856506,460.579895 1012.379822,425.924164 1047.033813,416.700226 
	C1064.462769,412.061157 1081.077515,414.876221 1095.363159,427.634216 
M1078.053223,441.364929 
	C1061.160156,429.629181 1039.426880,436.996399 1035.422852,456.107727 
	C1051.983032,456.107727 1068.477661,456.107727 1085.161011,456.107727 
	C1085.079468,450.138947 1082.671143,445.619568 1078.053223,441.364929 
z"/>
<path fill="#F8F8F8" opacity="1.000000" stroke="none" 
	d="
M571.534302,441.220764 
	C584.063416,420.599731 602.509949,411.970154 626.103333,415.767120 
	C655.467163,420.492798 668.689148,445.013062 666.299927,471.490295 
	C665.979675,475.039886 663.785706,474.740051 661.403015,474.738739 
	C640.926147,474.727600 620.449341,474.737976 599.972473,474.741791 
	C597.338196,474.742279 594.703979,474.741852 592.127441,474.741852 
	C591.248657,482.842896 596.097778,490.482422 604.542419,494.859131 
	C616.813232,501.218872 631.426331,498.464355 640.180176,487.766266 
	C642.545898,484.875122 644.418091,484.293884 647.649902,486.167358 
	C652.523743,488.992706 657.632141,491.413422 662.605042,493.987549 
	C657.612305,508.630676 639.989380,519.211365 619.919189,519.809387 
	C596.902466,520.495178 577.787109,508.616730 569.238770,487.852142 
	C564.642456,473.811523 564.566772,460.379364 568.984253,446.682129 
	C569.688416,445.346313 570.137634,444.250580 570.773926,442.951965 
	C571.152039,442.239655 571.343140,441.730225 571.534302,441.220764 
M641.632080,454.106354 
	C638.198792,441.303162 627.504700,434.409088 613.473816,435.953735 
	C601.828979,437.235718 592.563477,445.939209 592.183350,456.435211 
	C607.987915,456.435211 623.778198,456.455109 639.567932,456.371796 
	C640.297302,456.367920 641.021912,455.438690 641.632080,454.106354 
z"/>
<path fill="#F8F8F8" opacity="1.000000" stroke="none" 
	d="
M1180.277100,421.306427 
	C1197.454956,412.756439 1214.601440,412.390015 1231.595459,420.252258 
	C1242.697754,425.388611 1249.376831,434.815552 1249.876465,446.877686 
	C1250.812500,469.482117 1250.549561,492.136322 1250.754883,514.770081 
	C1250.760376,515.385681 1250.417236,516.004333 1250.092529,517.114441 
	C1243.461182,517.114441 1236.833618,517.240967 1230.221313,516.979614 
	C1229.215942,516.939819 1227.619751,515.201599 1227.447266,514.073120 
	C1227.036865,511.387085 1227.314941,508.595825 1227.314941,504.985962 
	C1213.930176,519.469604 1198.632202,522.573547 1181.293213,517.110535 
	C1169.392090,513.360840 1161.786377,503.841064 1160.843262,491.411407 
	C1159.889038,478.832031 1164.439941,469.036407 1175.785034,462.696777 
	C1184.338501,457.917145 1193.600098,456.404510 1203.168213,456.195251 
	C1210.464233,456.035675 1217.766724,456.163513 1224.942383,456.163513 
	C1227.287231,446.968414 1223.302490,439.672333 1214.880737,437.057892 
	C1202.370728,433.174255 1192.463257,436.976837 1183.687744,449.494446 
	C1177.817749,446.447052 1171.764893,443.470825 1165.949585,440.086670 
	C1165.177368,439.637268 1164.884033,436.433014 1165.605347,435.663239 
	C1170.198853,430.760986 1175.139404,426.183685 1180.277100,421.306427 
M1186.659180,492.594330 
	C1192.147827,500.034821 1203.735962,502.050262 1214.312012,497.403839 
	C1223.686157,493.285431 1227.630859,485.204041 1225.201538,473.671692 
	C1215.464233,474.294189 1205.472534,474.285248 1195.701538,475.749054 
	C1186.831055,477.077942 1183.775879,483.285034 1186.659180,492.594330 
z"/>
<path fill="#F8F8F8" opacity="1.000000" stroke="none" 
	d="
M773.062988,505.967896 
	C772.980225,517.029968 772.980225,517.034302 762.173523,517.065186 
	C757.714050,517.077942 753.254578,517.067383 748.349243,517.067383 
	C748.249390,514.803406 748.105286,513.024231 748.102661,511.244751 
	C748.080139,495.912231 748.091003,480.579681 748.069519,465.247162 
	C748.066467,463.082184 748.001282,460.913666 747.864746,458.753113 
	C746.987183,444.863068 740.028137,437.840546 727.018372,437.676971 
	C714.296448,437.516968 704.465820,446.137146 704.049377,459.089600 
	C703.498108,476.237732 703.848328,493.414856 703.813904,510.579498 
	C703.811584,511.746033 704.201538,513.088989 703.749451,514.034607 
	C703.181885,515.221863 701.962402,516.917786 700.973938,516.952271 
	C693.839417,517.201416 686.692139,517.085815 679.158569,517.085815 
	C679.158569,483.645996 679.158569,450.603455 679.158569,417.001984 
	C686.645569,417.001984 693.942627,416.883392 701.224976,417.156128 
	C702.108521,417.189209 703.469849,419.256073 703.639954,420.511719 
	C704.010132,423.243988 703.754211,426.061096 703.754211,429.185455 
	C704.510986,428.814240 705.007751,428.719971 705.270020,428.420410 
	C716.319092,415.797943 731.765747,411.627441 747.832581,416.954987 
	C762.630920,421.861908 771.994263,434.082062 772.583130,450.990875 
	C773.215088,469.135193 772.941895,487.311066 773.062988,505.967896 
z"/>
<path fill="#F9F9F9" opacity="1.000000" stroke="none" 
	d="
M939.850342,419.819305 
	C964.368225,406.809265 992.482483,419.290283 995.693420,446.283020 
	C998.449646,469.453674 997.327576,493.085663 997.928040,516.808472 
	C988.982605,516.808472 981.215759,516.808472 972.927673,516.808472 
	C972.844360,515.070068 972.702026,513.470764 972.701111,511.871368 
	C972.692139,496.042328 972.712219,480.213257 972.706909,464.384216 
	C972.706238,462.553101 972.688293,460.714539 972.531128,458.892120 
	C971.356873,445.278076 964.498352,438.053009 952.574585,437.814667 
	C939.690857,437.557129 930.836914,445.226624 929.201843,458.273010 
	C928.789490,461.563507 928.838501,464.922638 928.827271,468.250763 
	C928.778503,482.746796 928.792908,497.243011 928.762451,511.739136 
	C928.759094,513.359131 928.617432,514.978882 928.528503,516.836121 
	C920.342224,516.836121 912.577515,516.836121 904.388916,516.836121 
	C904.242126,515.531433 903.976807,514.270935 903.976379,513.010315 
	C903.965332,482.685120 904.046753,452.359680 903.914673,422.035095 
	C903.897888,418.189087 904.743591,416.604767 908.888062,416.904572 
	C914.027283,417.276367 919.223022,417.219696 924.374023,416.954102 
	C927.953125,416.769531 929.211182,418.069153 928.894104,421.534973 
	C928.683350,423.838745 928.854126,426.177429 928.854126,428.652008 
	C932.507874,425.688232 936.016846,422.841858 939.850342,419.819305 
z"/>
<path fill="#F9F9F9" opacity="1.000000" stroke="none" 
	d="
M835.971375,438.383240 
	C831.160278,438.378723 826.842529,438.378723 822.008789,438.378723 
	C822.008789,441.895752 822.013123,445.181519 822.008057,448.467285 
	C821.990051,460.122345 821.922485,471.777588 821.964600,483.432434 
	C821.994263,491.640869 826.402771,496.072754 834.671326,495.952789 
	C838.130005,495.902618 841.650879,495.419067 845.007690,494.585693 
	C847.616943,493.937866 848.878540,494.280823 848.886902,497.097748 
	C848.903137,502.592163 849.063477,508.095276 848.773254,513.574036 
	C848.713135,514.708069 847.002075,516.635925 845.962952,516.697510 
	C837.520874,517.198242 828.934082,518.367310 820.627930,517.367615 
	C805.986084,515.605408 797.171387,504.205872 797.048401,488.599213 
	C796.931580,473.781586 797.024231,458.962250 797.024719,444.143677 
	C797.024780,442.348328 797.024658,440.552979 797.024658,438.347107 
	C791.559631,438.347107 786.610168,438.347107 781.256775,438.347107 
	C781.256775,431.228394 781.256775,424.510162 781.256775,417.207153 
	C786.184753,417.207153 791.247253,417.207153 797.024536,417.207153 
	C797.024536,409.060760 797.172485,401.470734 796.957642,393.890930 
	C796.860657,390.468292 797.858765,389.076660 801.434143,389.226440 
	C806.752258,389.449219 812.095032,389.427643 817.412903,389.189392 
	C820.866272,389.034729 822.141724,390.169495 822.038330,393.717987 
	C821.820496,401.199249 821.972168,408.691284 821.972168,417.004333 
	C829.212708,417.004333 836.304871,417.261322 843.366699,416.909882 
	C847.745483,416.691956 849.314941,417.982391 848.977356,422.463379 
	C848.593750,427.555145 848.888855,432.698090 848.888855,438.387787 
	C844.371277,438.387787 840.418030,438.387787 835.971375,438.383240 
z"/>
<path fill="#F5F5F5" opacity="1.000000" stroke="none" 
	d="
M1123.030640,484.000000 
	C1123.032471,450.169495 1123.037842,416.838989 1123.034546,383.508484 
	C1123.034058,377.151672 1123.073975,377.098083 1129.488281,377.102844 
	C1133.987915,377.106171 1138.502563,377.331451 1142.982544,377.035095 
	C1146.730591,376.787201 1147.879028,378.076782 1147.862793,381.824921 
	C1147.727051,413.321320 1147.766846,444.818481 1147.755737,476.315399 
	C1147.751465,488.314514 1147.638550,500.315338 1147.817993,512.311707 
	C1147.873535,516.029785 1146.656250,517.338745 1142.923950,517.142273 
	C1137.772095,516.871033 1132.580566,516.841309 1127.433472,517.155823 
	C1123.692627,517.384399 1122.941040,515.823242 1122.997681,512.496765 
	C1123.156860,503.167023 1123.039551,493.832581 1123.030640,484.000000 
z"/>
<path fill="#F9F9F9" opacity="1.000000" stroke="none" 
	d="
M862.776001,470.947327 
	C862.780151,454.131104 862.890686,437.802673 862.701660,421.477692 
	C862.660522,417.922089 863.684875,416.755798 867.199951,416.920959 
	C872.520142,417.170959 877.861816,417.097260 883.190369,416.979706 
	C885.913574,416.919617 887.050842,417.792389 887.043518,420.693054 
	C886.965210,451.681488 887.019714,482.670319 886.856384,513.658081 
	C886.850403,514.803223 885.029358,516.879944 883.984253,516.925720 
	C877.189514,517.223267 870.375427,517.078491 862.774841,517.078491 
	C862.774841,501.590363 862.774841,486.513367 862.776001,470.947327 
z"/>
<path fill="#03CCC9" opacity="1.000000" stroke="none" 
	d="
M1499.204834,458.002472 
	C1499.203857,452.374695 1499.203857,447.246307 1499.203857,442.209015 
	C1508.154297,440.328796 1508.421509,440.485138 1513.016479,447.321747 
	C1518.364624,455.278748 1523.810547,463.169983 1530.242188,470.851562 
	C1530.242188,461.353485 1530.242188,451.855408 1530.242188,441.945618 
	C1533.759033,441.945618 1536.648071,441.945618 1539.928467,441.945618 
	C1539.928467,457.563843 1539.928467,473.285065 1539.928467,488.984131 
	C1532.108154,490.883820 1531.291260,490.537201 1527.222656,484.376495 
	C1521.491333,475.698303 1515.686035,467.068970 1509.102539,457.205597 
	C1509.102539,468.740112 1509.102539,478.793152 1509.102539,489.269592 
	C1505.825806,489.269592 1502.944580,489.269592 1499.205688,489.269592 
	C1499.205688,478.999664 1499.205688,468.750763 1499.204834,458.002472 
z"/>
<path fill="#03CCC9" opacity="1.000000" stroke="none" 
	d="
M1480.579956,482.564850 
	C1469.765259,492.922821 1453.619019,492.801270 1444.187988,482.553345 
	C1434.797974,472.349823 1435.905273,455.194794 1446.885010,445.979614 
	C1454.278687,439.774139 1463.089600,438.930786 1471.787598,442.257355 
	C1480.910034,445.746185 1485.884644,453.076447 1486.710449,462.859344 
	C1487.316895,470.043793 1485.883301,476.761566 1480.579956,482.564850 
M1473.011108,476.456299 
	C1480.558960,466.202454 1476.451294,452.015900 1465.386963,450.125214 
	C1458.182861,448.894135 1452.116577,451.792175 1449.624878,457.655060 
	C1446.346191,465.369659 1448.103760,474.279358 1453.761475,478.624237 
	C1458.896973,482.568115 1466.637329,481.903534 1473.011108,476.456299 
z"/>
<path fill="#03CCC9" opacity="1.000000" stroke="none" 
	d="
M1392.085449,455.670715 
	C1396.379761,466.900696 1400.533325,477.768646 1404.686035,488.634613 
	C1397.404175,491.479218 1394.863892,490.630920 1392.804077,483.799164 
	C1391.610718,479.841034 1389.576904,478.403595 1385.647461,478.938873 
	C1384.013306,479.161469 1382.296997,479.142212 1380.660156,478.921326 
	C1374.390991,478.075439 1370.185913,479.527924 1368.312622,486.593109 
	C1366.740845,492.520538 1361.425659,488.653961 1356.861816,489.935486 
	C1361.360474,478.034698 1365.446167,467.202148 1369.552979,456.377625 
	C1370.734375,453.263855 1371.891724,450.136200 1373.221802,447.085388 
	C1374.053833,445.176819 1374.887695,442.141968 1376.246948,441.817657 
	C1379.377319,441.070679 1382.845337,441.510101 1386.137329,441.847534 
	C1386.859741,441.921570 1387.621460,443.497437 1388.019043,444.516693 
	C1389.409302,448.082153 1390.648193,451.706604 1392.085449,455.670715 
M1378.252197,459.795105 
	C1377.102051,463.037872 1375.951782,466.280670 1374.724731,469.740112 
	C1379.149048,469.740112 1383.019653,469.740112 1387.515625,469.740112 
	C1385.482056,463.843842 1383.637329,458.495300 1381.298096,451.713074 
	C1380.011475,455.134125 1379.270386,457.104675 1378.252197,459.795105 
z"/>
<path fill="#F5F5F5" opacity="1.000000" stroke="none" 
	d="
M877.544800,403.883057 
	C867.394348,404.211304 860.956238,399.851898 860.053162,392.382172 
	C858.982056,383.522400 863.862549,376.775940 872.360901,375.368866 
	C880.203247,374.070343 887.389893,378.727600 889.062744,386.192413 
	C890.985291,394.771423 886.895386,401.270569 877.544800,403.883057 
z"/>
<path fill="#4258F1" opacity="1.000000" stroke="none" 
	d="
M257.218018,495.369598 
	C250.341568,498.785400 245.314163,498.311035 240.870728,494.076385 
	C236.489166,489.900757 235.378387,484.209320 237.839310,478.544556 
	C239.958801,473.665741 245.702011,470.138153 251.136978,470.673462 
	C256.561737,471.207733 260.416107,474.125641 262.391663,479.227966 
	C264.667786,485.106476 263.088013,490.034332 257.218018,495.369598 
z"/>
<path fill="#03CCC9" opacity="1.000000" stroke="none" 
	d="
M1425.439941,487.273499 
	C1422.544189,488.585968 1419.679443,489.467590 1416.091797,490.571747 
	C1416.091797,473.609955 1416.091797,457.943115 1416.091797,441.918823 
	C1418.832886,441.918823 1421.732300,441.918823 1425.471069,441.918823 
	C1425.471069,456.839417 1425.471069,471.841034 1425.439941,487.273499 
z"/>
<path fill="#DDDDDD" opacity="1.000000" stroke="none" 
	d="
M1307.241455,413.024506 
	C1311.400879,411.334229 1311.586060,413.841644 1311.581543,416.942963 
	C1311.538330,446.051483 1311.554321,475.160126 1311.554810,504.268707 
	C1311.554810,507.761688 1311.451172,511.259674 1311.605957,514.746033 
	C1311.729004,517.514282 1310.394897,518.269592 1307.516235,517.484741 
	C1307.126953,482.349182 1307.184204,447.686859 1307.241455,413.024506 
z"/>
<path fill="#090909" opacity="1.000000" stroke="none" 
	d="
M1306.822266,413.019653 
	C1307.184204,447.686859 1307.126953,482.349182 1307.112549,517.474426 
	C1302.590698,518.172180 1302.081787,514.951721 1302.036133,511.645569 
	C1301.930176,503.993347 1302.000366,496.338715 1302.000244,488.685059 
	C1301.999634,465.890472 1301.939209,443.095520 1302.072510,420.301727 
	C1302.090088,417.315521 1301.101196,413.126251 1306.822266,413.019653 
z"/>
<path fill="#090909" opacity="1.000000" stroke="none" 
	d="
M571.202698,441.045410 
	C571.343140,441.730225 571.152039,442.239655 570.324280,442.972076 
	C569.368164,444.437469 569.048706,445.679871 568.729248,446.922241 
	C564.566772,460.379364 564.642456,473.811523 568.972168,487.613678 
	C564.410950,488.968384 559.843872,489.928131 554.824341,490.827942 
	C557.496826,478.701172 557.325623,467.061890 549.801758,456.053436 
	C550.763184,455.175751 551.858521,454.069061 552.895935,454.121002 
	C564.494385,454.701416 562.420959,451.254089 564.038147,443.696991 
	C564.412354,441.948181 565.271912,440.303223 565.908142,438.610443 
	C567.562439,439.363647 569.216797,440.116852 571.202698,441.045410 
z"/>
<path fill="#060605" opacity="1.000000" stroke="none" 
	d="
M1078.322144,441.615051 
	C1082.671143,445.619568 1085.079468,450.138947 1085.161011,456.107727 
	C1068.477661,456.107727 1051.983032,456.107727 1035.422852,456.107727 
	C1039.426880,436.996399 1061.160156,429.629181 1078.322144,441.615051 
z"/>
<path fill="#060605" opacity="1.000000" stroke="none" 
	d="
M641.690430,454.523407 
	C641.021912,455.438690 640.297302,456.367920 639.567932,456.371796 
	C623.778198,456.455109 607.987915,456.435211 592.183350,456.435211 
	C592.563477,445.939209 601.828979,437.235718 613.473816,435.953735 
	C627.504700,434.409088 638.198792,441.303162 641.690430,454.523407 
z"/>
<path fill="#000000" opacity="1.000000" stroke="none" 
	d="
M568.984253,446.682129 
	C569.048706,445.679871 569.368164,444.437469 570.137207,443.174927 
	C570.137634,444.250580 569.688416,445.346313 568.984253,446.682129 
z"/>
<path fill="#090909" opacity="1.000000" stroke="none" 
	d="
M1186.456299,492.272339 
	C1183.775879,483.285034 1186.831055,477.077942 1195.701538,475.749054 
	C1205.472534,474.285248 1215.464233,474.294189 1225.201538,473.671692 
	C1227.630859,485.204041 1223.686157,493.285431 1214.312012,497.403839 
	C1203.735962,502.050262 1192.147827,500.034821 1186.456299,492.272339 
z"/>
<path fill="#060605" opacity="1.000000" stroke="none" 
	d="
M1472.761230,476.735413 
	C1466.637329,481.903534 1458.896973,482.568115 1453.761475,478.624237 
	C1448.103760,474.279358 1446.346191,465.369659 1449.624878,457.655060 
	C1452.116577,451.792175 1458.182861,448.894135 1465.386963,450.125214 
	C1476.451294,452.015900 1480.558960,466.202454 1472.761230,476.735413 
z"/>
<path fill="#090909" opacity="1.000000" stroke="none" 
	d="
M1378.390747,459.435181 
	C1379.270386,457.104675 1380.011475,455.134125 1381.298096,451.713074 
	C1383.637329,458.495300 1385.482056,463.843842 1387.515625,469.740112 
	C1383.019653,469.740112 1379.149048,469.740112 1374.724731,469.740112 
	C1375.951782,466.280670 1377.102051,463.037872 1378.390747,459.435181 
z"/>
</svg>