<svg xmlns="http://www.w3.org/2000/svg" viewBox="96.0 302.5 302.2 302.2" fill="none">
  <path fill="#4257F2" d="M148.861145,524.093872 
	C139.210266,518.936340 134.727005,516.563293 148.377731,509.242615 
	C156.295181,504.996643 164.024933,500.391266 171.743484,495.787262 
	C176.303696,493.067139 180.385971,493.553680 184.781540,496.311798 
	C204.381424,508.610413 224.136261,520.662720 243.699615,533.018494 
	C248.604172,536.116150 252.682693,535.829224 257.516876,532.814270 
	C275.741241,521.448303 294.133972,510.351410 312.504486,499.221191 
	C319.404053,495.040985 319.497284,491.616486 312.556213,487.307922 
	C290.198029,473.429443 267.784943,459.639008 245.468262,445.694275 
	C235.630981,439.547333 232.723831,432.156738 236.100510,423.014526 
	C240.353683,411.499237 250.505264,407.916748 261.003510,414.245087 
	C273.409241,421.723328 285.797211,429.231018 298.206116,436.704010 
	C315.323029,447.012299 332.328827,457.514221 349.637054,467.491180 
	C356.558716,471.480988 359.519379,476.708984 359.189667,484.575867 
	C358.820190,493.392548 359.011932,502.237213 359.117493,511.067810 
	C359.192688,517.356689 356.440826,521.939575 351.188354,525.114685 
	C319.977295,543.981384 288.742615,562.808960 257.539795,581.689209 
	C252.596909,584.680054 247.728973,584.577820 242.923798,581.632263 
	C221.061905,568.230957 199.243958,554.757996 177.385269,541.351379 
	C168.016129,535.604980 158.586288,529.957642 148.861145,524.093872 
z"/>
  <path fill="#4258F1" d="M311.894653,358.131653 
	C325.705444,366.547302 339.239288,374.719482 352.673676,383.051910 
	C359.005676,386.979156 358.928619,390.104919 352.690918,393.934998 
	C343.610352,399.510651 334.401367,404.887573 325.472351,410.695465 
	C320.671722,413.818054 316.558228,413.866150 311.651428,410.831604 
	C292.537231,399.010803 273.181274,387.580566 254.080612,375.738403 
	C249.858322,373.120667 246.255875,372.792542 242.079681,375.332336 
	C222.594223,387.182404 203.024200,398.893890 183.577972,410.807709 
	C178.280716,414.053101 178.703827,421.338409 184.154495,424.699493 
	C199.592438,434.219055 215.058411,443.693085 230.504120,453.200043 
	C235.501663,456.276123 235.680710,457.535767 231.270248,461.165710 
	C224.246964,466.946198 220.824707,474.344025 220.717926,483.377991 
	C220.698807,484.993866 220.487381,486.607452 220.304489,489.015442 
	C217.848648,487.740051 215.961517,486.901123 214.215515,485.831787 
	C192.068329,472.268097 170.005920,458.564301 147.767914,445.151550 
	C141.525024,441.386169 138.710083,436.501160 138.958817,429.188690 
	C139.321030,418.540527 139.146759,407.871735 139.085815,397.212402 
	C139.053329,391.530487 141.347656,387.442841 146.259323,384.456451 
	C178.255066,365.002289 210.200943,345.465942 242.129700,325.901947 
	C247.696854,322.490753 252.988647,322.618622 258.539337,325.992859 
	C276.177032,336.714752 293.891876,347.309784 311.894653,358.131653 
z"/>
  <path fill="#4258F1" d="M257.218018,495.369598 
	C250.341568,498.785400 245.314163,498.311035 240.870728,494.076385 
	C236.489166,489.900757 235.378387,484.209320 237.839310,478.544556 
	C239.958801,473.665741 245.702011,470.138153 251.136978,470.673462 
	C256.561737,471.207733 260.416107,474.125641 262.391663,479.227966 
	C264.667786,485.106476 263.088013,490.034332 257.218018,495.369598 
z"/>
</svg>
